<?xml version="1.0" encoding="UTF-8" standalone="no"?>
<!-- Created with Inkscape (http://www.inkscape.org/) -->

<svg
   width="154.78125mm"
   height="154.78125mm"
   viewBox="0 0 154.78125 154.78125"
   version="1.1"
   id="svg5"
   sodipodi:docname="logo.svg"
   inkscape:version="1.1 (c68e22c387, 2021-05-23)"
   inkscape:export-filename="C:\Users\Admin\Desktop\logo.png"
   inkscape:export-xdpi="367.73041"
   inkscape:export-ydpi="367.73041"
   xmlns:inkscape="http://www.inkscape.org/namespaces/inkscape"
   xmlns:sodipodi="http://sodipodi.sourceforge.net/DTD/sodipodi-0.dtd"
   xmlns="http://www.w3.org/2000/svg"
   xmlns:svg="http://www.w3.org/2000/svg">
  <sodipodi:namedview
     id="namedview7"
     pagecolor="#505050"
     bordercolor="#ffffff"
     borderopacity="1"
     inkscape:pageshadow="0"
     inkscape:pageopacity="0"
     inkscape:pagecheckerboard="1"
     inkscape:document-units="mm"
     showgrid="false"
     fit-margin-top="0"
     fit-margin-left="0"
     fit-margin-right="0"
     fit-margin-bottom="0"
     inkscape:zoom="0.50000001"
     inkscape:cx="65.999998"
     inkscape:cy="4.9999999"
     inkscape:window-width="1920"
     inkscape:window-height="1009"
     inkscape:window-x="1912"
     inkscape:window-y="40"
     inkscape:window-maximized="1"
     inkscape:current-layer="layer2" />
  <defs
     id="defs2" />
  <g
     inkscape:groupmode="layer"
     id="layer2"
     inkscape:label="Ebene 2">
    <path
       style="fill:none;stroke:#000000;stroke-width:6;stroke-linecap:butt;stroke-linejoin:miter;stroke-miterlimit:4;stroke-dasharray:none;stroke-opacity:1"
       d="M 23.974227,20.779639 C 19.871924,16.855448 22.701444,16.378005 19.80187,16.751862 18.947514,14.225801 18.143159,12.116736 18.120791,9.7186735 20.17111,11.231522 23.135016,11.099895 25.437084,10.976352 23.961282,7.7054815 21.912643,6.2432771 17.789007,5.6202396 17.888768,3.6062882 20.095231,2.7308685 17.735258,1.3163452 16.509034,0.58706488 15.958042,2.8444839 15.637296,4.3829626 L 13.865199,4.1846994 C 13.83096,3.1288733 14.567826,1.5808809 12.880971,1.3502064 11.151576,1.0636069 11.215008,4.556686 11.197065,4.3356854 10.070497,4.4963477 8.9550007,4.6957641 8.4612976,7.0714538 5.028594,6.8586321 3.6606202,8.4969477 2.0310751,9.900751 3.968579,10.507793 5.90637,11.111826 7.9702627,10.391787 8.7822574,14.208665 2.9714639,14.48223 4.6733119,17.850846 7.2207327,22.5852 10.613537,15.928618 12.880615,15.489199 c 0.281893,0.734996 0.244029,1.278138 0.210444,1.823847 -1.877814,0.395167 -1.998182,1.545066 -1.800463,3.32033"
       sodipodi:nodetypes="ccccccccccccccccccccc" />
  </g>
</svg>
